<svg width="79" height="60" viewBox="0 0 79 60" fill="none" xmlns="http://www.w3.org/2000/svg">
<g clip-path="url(#clip0)">
<path d="M0 20.32V15.96L16.1167 0L20.6406 4.48V0.32H23.5489V11.72L16.1167 4.36L0 20.32Z" fill="#1ED682"/>
<path d="M12.7238 16.4001C15.7128 16.4001 17.894 18.2001 18.3788 21.0001L15.6321 21.5201C15.3493 19.9201 14.2991 19.0001 12.7238 19.0001C10.7849 19.0001 9.53278 20.5601 9.53278 23.0401C9.53278 25.5201 10.7849 27.0801 12.7238 27.0801C14.3395 27.0801 15.3493 26.1601 15.6321 24.5601L18.3788 25.0801C17.894 27.9201 15.7128 29.6801 12.7238 29.6801C9.12885 29.6801 6.62451 26.9601 6.62451 23.0001C6.62451 19.0801 9.12885 16.4001 12.7238 16.4001Z" fill="#001328"/>
<path d="M23.5488 14.8398V17.8798H23.5892C24.3162 16.9598 25.6088 16.3998 26.9822 16.3998C29.85 16.3998 31.7485 18.3198 31.7485 21.1198V29.3598H28.8806V21.7198C28.8806 20.0398 27.9112 19.0398 26.2551 19.0398C24.599 19.0398 23.5488 20.0798 23.5488 21.7198V29.3598H20.6809V11.9998L23.5488 14.8398Z" fill="#001328"/>
<path d="M39.9886 18.8401C38.3325 18.8401 37.0399 20.0801 36.9592 21.7601H42.9777C42.8969 20.0001 41.7659 18.8401 39.9886 18.8401ZM39.9482 16.4001C43.4624 16.4001 45.8455 19.0801 45.8455 22.9201V23.8801H36.9188C36.9996 25.9201 38.2113 27.2401 39.9886 27.2401C41.4023 27.2401 42.3718 26.6401 43.3412 25.1601L45.4416 26.6801C44.2702 28.6801 42.4122 29.7201 39.9886 29.7201C36.4744 29.7201 34.0105 27.0401 34.0105 23.0401C34.0105 19.1201 36.4744 16.4001 39.9482 16.4001Z" fill="#001328"/>
<path d="M53.8434 16.4001C56.8325 16.4001 59.0137 18.2001 59.4984 21.0001L56.7517 21.5201C56.4689 19.9201 55.4187 19.0001 53.8434 19.0001C51.9046 19.0001 50.6524 20.5601 50.6524 23.0401C50.6524 25.5201 51.9046 27.0801 53.8434 27.0801C55.4591 27.0801 56.4689 26.1601 56.7517 24.5601L59.4984 25.0801C59.0137 27.9201 56.8325 29.6801 53.8434 29.6801C50.2485 29.6801 47.7441 26.9601 47.7441 23.0001C47.7441 19.0801 50.2485 16.4001 53.8434 16.4001Z" fill="#001328"/>
<path d="M64.6687 11.9998V21.7998H64.709L69.233 16.7198H73.0299L68.3848 21.7198L73.1915 29.3598H69.9197L66.4863 23.6798H66.4459L64.6687 25.6398V29.3598H61.8008V11.9998H64.6687Z" fill="#001328"/>
<path d="M12.1179 41.9198C10.7042 42.6798 9.93672 43.7198 9.93672 44.7598C9.93672 46.3198 11.1081 47.2398 13.1277 47.2398C14.8242 47.2398 15.9956 46.7198 16.5207 45.6398L12.1179 41.9198ZM18.7019 47.5198C17.6517 49.0798 15.7129 49.9198 13.1277 49.9198C9.37123 49.9198 7.06885 48.0798 7.06885 44.9998C7.06885 43.1598 8.15945 41.4798 10.1791 40.2398C8.88651 39.0798 8.32102 37.9598 8.32102 36.6798C8.32102 34.3198 10.3406 32.5198 13.0873 32.5198C15.8744 32.5198 17.7325 34.0398 18.0556 36.5998L15.2282 36.9998C15.0262 35.7998 14.2991 35.1998 13.1277 35.1998C11.9564 35.1998 11.1889 35.7998 11.1889 36.7598C11.1889 37.4398 11.512 37.8798 12.4411 38.7198L16.9246 42.5198V39.7198H19.6309V44.7998L25.2455 49.5598H21.1255L18.7019 47.5198Z" fill="#001328"/>
<path d="M26.6187 36.9602L30.2136 45.8002H30.254L33.8085 36.9602H36.8784L31.5466 49.5602H28.8807L23.5488 36.9602H26.6187Z" fill="#001328"/>
<path d="M46.209 44.7603C46.6129 46.6803 47.5824 47.4803 49.4404 47.4803C50.8138 47.4803 51.662 47.0003 51.662 46.2003C51.662 45.2403 50.7734 44.7603 48.6326 44.1203C45.8455 43.3203 44.351 42.6003 44.2298 40.3203C44.2298 38.2003 46.2494 36.6003 48.9153 36.6003C50.2079 36.6003 51.2985 36.9203 52.2679 37.6403C53.2373 38.3203 53.8432 39.2003 54.126 40.3203L51.5004 41.0403C51.0965 39.7203 50.1675 39.0003 48.9153 39.0003C47.7439 39.0003 46.9765 39.4803 46.9765 40.2803C46.9765 40.9603 47.7035 41.3203 49.5212 41.8003C52.5103 42.6403 54.3279 43.5203 54.4087 46.0803C54.4087 48.4003 52.4295 49.9203 49.4404 49.9203C46.209 49.9203 44.0682 48.3203 43.5835 45.4403L46.209 44.7603Z" fill="#001328"/>
<path d="M62.6895 60.0002L56.5498 53.9602V49.5602L62.6895 55.6402L78.8061 39.6802V44.0402L62.6895 60.0002Z" fill="#1ED682"/>
<path d="M66.0014 49.4806C64.103 49.2006 63.3355 48.1206 63.3355 45.9206V39.5206H61.2351V36.9606H63.3355V33.3606H66.2034V36.9606H69.354V39.5206H66.2034V45.7606C66.2034 46.6006 66.5265 46.8406 67.5363 46.8406H68.6673L66.0014 49.4806Z" fill="#001328"/>
<path d="M41.4023 36.9602H38.5344V49.5602H41.4023V36.9602Z" fill="#001328"/>
<path d="M41.4833 33.3606H38.4539V35.6806H41.4833V33.3606Z" fill="#001328"/>
<path d="M59.4177 36.9602V49.5602L56.5498 46.7202V36.9602H59.4177Z" fill="#001328"/>
<path d="M59.4982 33.3606H56.4688V35.6806H59.4982V33.3606Z" fill="#001328"/>
</g>
<defs>
<clipPath id="clip0">
<rect width="78.806" height="60" fill="white"/>
</clipPath>
</defs>
</svg>
